<?xml version="1.0" encoding="UTF-8"?>
<svg width="400" height="300" viewBox="0 0 400 300" xmlns="http://www.w3.org/2000/svg">
  <defs>
    <linearGradient id="grad" x1="0%" y1="0%" x2="100%" y2="100%">
      <stop offset="0%" style="stop-color:#be185d;stop-opacity:1" />
      <stop offset="100%" style="stop-color:#312e81;stop-opacity:1" />
    </linearGradient>
    <filter id="glow">
      <feGaussianBlur stdDeviation="1.5" result="coloredBlur"/>
      <feMerge>
        <feMergeNode in="coloredBlur"/>
        <feMergeNode in="SourceGraphic"/>
      </feMerge>
    </filter>
  </defs>
  <g fill="none" stroke="url(#grad)" filter="url(#glow)">
    <!-- Neural Network Structure -->
    <!-- Input Layer -->
    <g stroke-width="2">
      <circle cx="100" cy="100" r="8"/>
      <circle cx="100" cy="150" r="8"/>
      <circle cx="100" cy="200" r="8"/>
    </g>
    
    <!-- Hidden Layer 1 -->
    <g stroke-width="2">
      <circle cx="200" cy="80" r="8"/>
      <circle cx="200" cy="140" r="8"/>
      <circle cx="200" cy="200" r="8"/>
      <circle cx="200" cy="260" r="8"/>
    </g>
    
    <!-- Hidden Layer 2 -->
    <g stroke-width="2">
      <circle cx="300" cy="100" r="8"/>
      <circle cx="300" cy="150" r="8"/>
      <circle cx="300" cy="200" r="8"/>
    </g>
    
    <!-- Connections -->
    <g stroke-width="1" opacity="0.6">
      <!-- Input to Hidden 1 -->
      <path d="M108 100l84-20"/>
      <path d="M108 100l84 40"/>
      <path d="M108 100l84 100"/>
      <path d="M108 100l84 160"/>
      
      <path d="M108 150l84-70"/>
      <path d="M108 150l84-10"/>
      <path d="M108 150l84 50"/>
      <path d="M108 150l84 110"/>
      
      <path d="M108 200l84-120"/>
      <path d="M108 200l84-60"/>
      <path d="M108 200l84 0"/>
      <path d="M108 200l84 60"/>
      
      <!-- Hidden 1 to Hidden 2 -->
      <path d="M208 80l84 20"/>
      <path d="M208 80l84 70"/>
      <path d="M208 80l84 120"/>
      
      <path d="M208 140l84-40"/>
      <path d="M208 140l84 10"/>
      <path d="M208 140l84 60"/>
      
      <path d="M208 200l84-100"/>
      <path d="M208 200l84-50"/>
      <path d="M208 200l84 0"/>
      
      <path d="M208 260l84-160"/>
      <path d="M208 260l84-110"/>
      <path d="M208 260l84-60"/>
    </g>
    
    <!-- Active Nodes -->
    <g fill="url(#grad)">
      <circle cx="100" cy="150" r="4"/>
      <circle cx="200" cy="140" r="4"/>
      <circle cx="200" cy="200" r="4"/>
      <circle cx="300" cy="150" r="4"/>
    </g>
    
    <!-- Data Flow Particles -->
    <g fill="url(#grad)">
      <circle cx="150" cy="120" r="2">
        <animate attributeName="cx" from="108" to="192" dur="2s" repeatCount="indefinite"/>
        <animate attributeName="cy" from="100" to="140" dur="2s" repeatCount="indefinite"/>
      </circle>
      <circle cx="250" cy="170" r="2">
        <animate attributeName="cx" from="208" to="292" dur="2s" repeatCount="indefinite"/>
        <animate attributeName="cy" from="140" to="150" dur="2s" repeatCount="indefinite"/>
      </circle>
    </g>
  </g>
</svg>
