<?xml version="1.0" encoding="UTF-8"?>
<svg width="400" height="300" viewBox="0 0 400 300" xmlns="http://www.w3.org/2000/svg">
  <defs>
    <linearGradient id="grad" x1="0%" y1="0%" x2="100%" y2="100%">
      <stop offset="0%" style="stop-color:#be185d;stop-opacity:1" />
      <stop offset="100%" style="stop-color:#312e81;stop-opacity:1" />
    </linearGradient>
    <filter id="glow">
      <feGaussianBlur stdDeviation="1.5" result="coloredBlur"/>
      <feMerge>
        <feMergeNode in="coloredBlur"/>
        <feMergeNode in="SourceGraphic"/>
      </feMerge>
    </filter>
  </defs>
  <g fill="none" stroke="url(#grad)" filter="url(#glow)">
    <!-- Main Cloud Shape -->
    <path d="M100 150C100 120 130 100 160 100C160 70 220 70 240 100C270 100 300 120 300 150C300 180 270 200 200 200C130 200 100 180 100 150Z" 
          stroke-width="3"/>
    
    <!-- Cloud Details -->
    <path d="M140 140C140 130 150 120 160 120M260 140C260 130 250 120 240 120" 
          stroke-width="1.5" opacity="0.7"/>
    
    <!-- Server Racks -->
    <g stroke-width="2">
      <!-- Rack 1 -->
      <rect x="150" y="130" width="40" height="60" rx="2"/>
      <line x1="155" y1="140" x2="185" y2="140"/>
      <line x1="155" y1="150" x2="185" y2="150"/>
      <line x1="155" y1="160" x2="185" y2="160"/>
      <circle cx="180" cy="135" r="1" fill="url(#grad)"/>
      <circle cx="183" cy="135" r="1" fill="url(#grad)"/>
      
      <!-- Rack 2 -->
      <rect x="210" y="130" width="40" height="60" rx="2"/>
      <line x1="215" y1="140" x2="245" y2="140"/>
      <line x1="215" y1="150" x2="245" y2="150"/>
      <line x1="215" y1="160" x2="245" y2="160"/>
      <circle cx="240" cy="135" r="1" fill="url(#grad)"/>
      <circle cx="243" cy="135" r="1" fill="url(#grad)"/>
    </g>
    
    <!-- Connection Lines -->
    <g stroke-width="1" stroke-dasharray="4,4">
      <path d="M170 190v20"/>
      <path d="M230 190v20"/>
      <path d="M150 210h140"/>
    </g>
    
    <!-- Data Flow -->
    <g>
      <circle cx="170" cy="200" r="2" fill="url(#grad)">
        <animate attributeName="cy" from="190" to="210" dur="1.5s" repeatCount="indefinite"/>
      </circle>
      <circle cx="230" cy="200" r="2" fill="url(#grad)">
        <animate attributeName="cy" from="190" to="210" dur="1.5s" repeatCount="indefinite"/>
      </circle>
      <circle cx="200" cy="210" r="2" fill="url(#grad)">
        <animate attributeName="cx" from="150" to="290" dur="3s" repeatCount="indefinite"/>
      </circle>
    </g>
    
    <!-- Network Icons -->
    <g stroke-width="1.5">
      <circle cx="130" cy="160" r="5"/>
      <path d="M127 157l6 6M127 163l6-6"/>
      <circle cx="270" cy="160" r="5"/>
      <path d="M267 157l6 6M267 163l6-6"/>
    </g>
  </g>
</svg>
