<?xml version="1.0" encoding="UTF-8"?>
<svg width="400" height="300" viewBox="0 0 400 300" xmlns="http://www.w3.org/2000/svg">
  <defs>
    <linearGradient id="grad" x1="0%" y1="0%" x2="100%" y2="100%">
      <stop offset="0%" style="stop-color:#be185d;stop-opacity:1" />
      <stop offset="100%" style="stop-color:#312e81;stop-opacity:1" />
    </linearGradient>
    <filter id="glow">
      <feGaussianBlur stdDeviation="1.5" result="coloredBlur"/>
      <feMerge>
        <feMergeNode in="coloredBlur"/>
        <feMergeNode in="SourceGraphic"/>
      </feMerge>
    </filter>
  </defs>
  <g fill="none" stroke="url(#grad)" filter="url(#glow)">
    <!-- Main Dashboard Frame -->
    <rect x="80" y="60" width="240" height="180" rx="8" stroke-width="3"/>
    
    <!-- Top Bar -->
    <rect x="80" y="60" width="240" height="30" rx="8" stroke-width="2"/>
    <circle cx="95" cy="75" r="5" fill="url(#grad)"/>
    <circle cx="110" cy="75" r="5" fill="url(#grad)"/>
    <circle cx="125" cy="75" r="5" fill="url(#grad)"/>
    
    <!-- Left Panel - Navigation -->
    <rect x="80" y="90" width="50" height="150" stroke-width="2"/>
    <g stroke-width="1.5">
      <path d="M90 110h30"/>
      <path d="M90 130h30"/>
      <path d="M90 150h30"/>
      <path d="M90 170h30"/>
    </g>
    
    <!-- Main Content Area -->
    <!-- Graph Widget -->
    <rect x="140" y="100" width="170" height="80" rx="4" stroke-width="1.5"/>
    <path d="M150 160l20-30 30 10 40-40 50 20" stroke-width="2"/>
    <circle cx="170" cy="130" r="3" fill="url(#grad)"/>
    <circle cx="200" cy="140" r="3" fill="url(#grad)"/>
    <circle cx="240" cy="100" r="3" fill="url(#grad)"/>
    <circle cx="290" cy="120" r="3" fill="url(#grad)"/>
    
    <!-- Stats Widgets -->
    <g stroke-width="1.5">
      <rect x="140" y="190" width="80" height="40" rx="4"/>
      <path d="M150 205h60M150 215h40" stroke-width="1" opacity="0.7"/>
      
      <rect x="230" y="190" width="80" height="40" rx="4"/>
      <path d="M240 205h60M240 215h40" stroke-width="1" opacity="0.7"/>
    </g>
    
    <!-- Animated Elements -->
    <g>
      <!-- Loading Spinner -->
      <circle cx="280" cy="75" r="8" stroke-width="2" stroke-dasharray="15,5">
        <animateTransform
          attributeName="transform"
          attributeType="XML"
          type="rotate"
          from="0 280 75"
          to="360 280 75"
          dur="2s"
          repeatCount="indefinite"/>
      </circle>
      
      <!-- Data Point Pulse -->
      <circle cx="240" cy="100" r="5" stroke-width="1" opacity="0.5">
        <animate
          attributeName="r"
          values="3;8;3"
          dur="2s"
          repeatCount="indefinite"/>
        <animate
          attributeName="opacity"
          values="1;0;1"
          dur="2s"
          repeatCount="indefinite"/>
      </circle>
    </g>
    
    <!-- Decorative Elements -->
    <g stroke-width="1" opacity="0.3">
      <path d="M150 120h150"/>
      <path d="M150 140h150"/>
      <path d="M150 160h150"/>
    </g>
  </g>
</svg>
