<?xml version="1.0" encoding="UTF-8"?>
<svg width="400" height="300" viewBox="0 0 400 300" xmlns="http://www.w3.org/2000/svg">
  <defs>
    <linearGradient id="grad" x1="0%" y1="0%" x2="100%" y2="100%">
      <stop offset="0%" style="stop-color:#be185d;stop-opacity:1" />
      <stop offset="100%" style="stop-color:#312e81;stop-opacity:1" />
    </linearGradient>
    <filter id="glow">
      <feGaussianBlur stdDeviation="1.5" result="coloredBlur"/>
      <feMerge>
        <feMergeNode in="coloredBlur"/>
        <feMergeNode in="SourceGraphic"/>
      </feMerge>
    </filter>
  </defs>
  <g fill="none" stroke="url(#grad)" filter="url(#glow)">
    <!-- Background Grid -->
    <g stroke-width="0.5" opacity="0.2">
      <path d="M80 60h240M80 100h240M80 140h240M80 180h240M80 220h240"/>
      <path d="M100 60v160M140 60v160M180 60v160M220 60v160M260 60v160M300 60v160"/>
    </g>
    
    <!-- Main Chart Area -->
    <path d="M80 220h240M80 60v160" stroke-width="2"/>
    
    <!-- Bar Chart -->
    <g stroke-width="2">
      <rect x="100" y="180" width="20" height="40" fill="url(#grad)" opacity="0.8">
        <animate attributeName="height" from="0" to="40" dur="1s"/>
        <animate attributeName="y" from="220" to="180" dur="1s"/>
      </rect>
      
      <rect x="140" y="140" width="20" height="80" fill="url(#grad)" opacity="0.8">
        <animate attributeName="height" from="0" to="80" dur="1s"/>
        <animate attributeName="y" from="220" to="140" dur="1s"/>
      </rect>
      
      <rect x="180" y="100" width="20" height="120" fill="url(#grad)" opacity="0.8">
        <animate attributeName="height" from="0" to="120" dur="1s"/>
        <animate attributeName="y" from="220" to="100" dur="1s"/>
      </rect>
      
      <rect x="220" y="80" width="20" height="140" fill="url(#grad)" opacity="0.8">
        <animate attributeName="height" from="0" to="140" dur="1s"/>
        <animate attributeName="y" from="220" to="80" dur="1s"/>
      </rect>
      
      <rect x="260" y="60" width="20" height="160" fill="url(#grad)" opacity="0.8">
        <animate attributeName="height" from="0" to="160" dur="1s"/>
        <animate attributeName="y" from="220" to="60" dur="1s"/>
      </rect>
    </g>
    
    <!-- Trend Line -->
    <path d="M110 180C140 140 180 100 270 60" stroke-width="2" stroke-dasharray="4,4" opacity="0.7"/>
    
    <!-- Data Points -->
    <g fill="url(#grad)">
      <circle cx="110" cy="180" r="4"/>
      <circle cx="150" cy="140" r="4"/>
      <circle cx="190" cy="100" r="4"/>
      <circle cx="230" cy="80" r="4"/>
      <circle cx="270" cy="60" r="4"/>
    </g>
    
    <!-- Animated Elements -->
    <g>
      <!-- Highlight Pulse -->
      <circle cx="190" cy="100" r="8" stroke-width="2" opacity="0.5">
        <animate attributeName="r" values="4;12;4" dur="2s" repeatCount="indefinite"/>
        <animate attributeName="opacity" values="0.8;0;0.8" dur="2s" repeatCount="indefinite"/>
      </circle>
      
      <!-- Moving Data Point -->
      <circle cx="150" cy="140" r="3" fill="url(#grad)">
        <animate
          attributeName="cx"
          values="110;150;190;230;270;110"
          dur="4s"
          repeatCount="indefinite"/>
        <animate
          attributeName="cy"
          values="180;140;100;80;60;180"
          dur="4s"
          repeatCount="indefinite"/>
      </circle>
    </g>
    
    <!-- Axis Labels -->
    <g stroke-width="1" opacity="0.7">
      <path d="M75 60h5M75 100h5M75 140h5M75 180h5M75 220h5"/>
      <path d="M100 225v5M140 225v5M180 225v5M220 225v5M260 225v5M300 225v5"/>
    </g>
  </g>
</svg>
