<?xml version="1.0" encoding="UTF-8"?>
<svg width="600" height="500" viewBox="0 0 600 500" xmlns="http://www.w3.org/2000/svg">
  <defs>
    <linearGradient id="grad" x1="0%" y1="0%" x2="100%" y2="100%">
      <stop offset="0%" style="stop-color:#be185d;stop-opacity:1" />
      <stop offset="100%" style="stop-color:#312e81;stop-opacity:1" />
    </linearGradient>
    <filter id="glow">
      <feGaussianBlur stdDeviation="2" result="coloredBlur"/>
      <feMerge>
        <feMergeNode in="coloredBlur"/>
        <feMergeNode in="SourceGraphic"/>
      </feMerge>
    </filter>
  </defs>
  
  <g fill="none" stroke="url(#grad)" filter="url(#glow)">
    <!-- Central Hub -->
    <circle cx="300" cy="250" r="80" stroke-width="2" opacity="0.8"/>
    <circle cx="300" cy="250" r="60" stroke-width="1.5" opacity="0.6"/>
    
    <!-- Orbiting Elements -->
    <g>
      <!-- Data Cubes -->
      <g transform="translate(300 250)">
        <animateTransform
          attributeName="transform"
          type="rotate"
          from="0 300 250"
          to="360 300 250"
          dur="20s"
          repeatCount="indefinite"/>
        <rect x="-120" y="-20" width="40" height="40" stroke-width="2" opacity="0.8"/>
        <rect x="80" y="-20" width="40" height="40" stroke-width="2" opacity="0.8"/>
        <rect x="-20" y="-120" width="40" height="40" stroke-width="2" opacity="0.8"/>
        <rect x="-20" y="80" width="40" height="40" stroke-width="2" opacity="0.8"/>
      </g>
    </g>
    
    <!-- Connection Lines -->
    <g stroke-dasharray="4,4" opacity="0.4">
      <line x1="200" y1="250" x2="180" y2="250" stroke-width="1"/>
      <line x1="400" y1="250" x2="420" y2="250" stroke-width="1"/>
      <line x1="300" y1="150" x2="300" y2="130" stroke-width="1"/>
      <line x1="300" y1="350" x2="300" y2="370" stroke-width="1"/>
    </g>
    
    <!-- Floating Tech Elements -->
    <g>
      <!-- CPU -->
      <rect x="150" y="180" width="60" height="60" stroke-width="2" opacity="0.8">
        <animate attributeName="opacity" values="0.8;0.4;0.8" dur="4s" repeatCount="indefinite"/>
      </rect>
      <path d="M160 210h40M180 190v40" stroke-width="1"/>
      
      <!-- Circuit Board -->
      <g transform="translate(400, 180)">
        <rect width="60" height="60" stroke-width="2" opacity="0.8"/>
        <path d="M15 15h30v30H15z" stroke-width="1"/>
        <path d="M0 30h15M45 30h15M30 0v15M30 45v15" stroke-width="1"/>
      </g>
      
      <!-- Network Node -->
      <g transform="translate(280, 400)">
        <circle r="25" stroke-width="2" opacity="0.8"/>
        <path d="M-15-15l30 30M-15 15l30-30" stroke-width="1"/>
      </g>
    </g>
    
    <!-- Data Flow Particles -->
    <g fill="url(#grad)">
      <!-- Orbit 1 -->
      <circle r="3">
        <animateMotion
          path="M300,250 m-80,0 a80,80 0 1,0 160,0 a80,80 0 1,0 -160,0"
          dur="8s"
          repeatCount="indefinite"/>
      </circle>
      <!-- Orbit 2 -->
      <circle r="3">
        <animateMotion
          path="M300,250 m-60,0 a60,60 0 1,1 120,0 a60,60 0 1,1 -120,0"
          dur="6s"
          repeatCount="indefinite"/>
      </circle>
    </g>
    
    <!-- Pulse Effects -->
    <g>
      <circle cx="300" cy="250" r="10" stroke-width="2" opacity="0.5">
        <animate attributeName="r" values="10;40;10" dur="3s" repeatCount="indefinite"/>
        <animate attributeName="opacity" values="0.5;0;0.5" dur="3s" repeatCount="indefinite"/>
      </circle>
    </g>
  </g>
  
  <!-- Binary Data Stream -->
  <g fill="url(#grad)" opacity="0.3" font-family="monospace" font-size="12">
    <text x="160" y="150">10110</text>
    <text x="420" y="150">01001</text>
    <text x="160" y="350">11001</text>
    <text x="420" y="350">10110</text>
  </g>
</svg>
