<?xml version="1.0" encoding="UTF-8"?>
<svg width="400" height="300" viewBox="0 0 400 300" xmlns="http://www.w3.org/2000/svg">
  <defs>
    <linearGradient id="grad" x1="0%" y1="0%" x2="100%" y2="100%">
      <stop offset="0%" style="stop-color:#be185d;stop-opacity:1" />
      <stop offset="100%" style="stop-color:#312e81;stop-opacity:1" />
    </linearGradient>
    <filter id="glow">
      <feGaussianBlur stdDeviation="2" result="coloredBlur"/>
      <feMerge>
        <feMergeNode in="coloredBlur"/>
        <feMergeNode in="SourceGraphic"/>
      </feMerge>
    </filter>
  </defs>
  <g fill="none" stroke="url(#grad)" filter="url(#glow)">
    <!-- Central Hub -->
    <circle cx="200" cy="150" r="40" stroke-width="3"/>
    <circle cx="200" cy="150" r="35" stroke-width="1"/>
    <path d="M170 150h60M200 120v60" stroke-width="2"/>
    <circle cx="200" cy="150" r="8" fill="url(#grad)"/>
    
    <!-- Connected Devices -->
    <g stroke-width="2">
      <!-- Device 1 - Smartphone -->
      <rect x="85" y="85" width="30" height="45" rx="3"/>
      <line x1="95" y1="95" x2="105" y2="95"/>
      <circle cx="100" cy="115" r="5"/>
      
      <!-- Device 2 - Laptop -->
      <path d="M270 85h45v30h-45z"/>
      <path d="M265 115h55v5h-55z"/>
      
      <!-- Device 3 - Smart Home -->
      <path d="M85 185l15-15h30l15 15v30h-60z"/>
      <rect x="95" y="195" width="10" height="15"/>
      
      <!-- Device 4 - Server -->
      <rect x="270" y="185" width="40" height="40"/>
      <path d="M275 195h30M275 205h30M275 215h30" stroke-width="1"/>
    </g>
    
    <!-- Connection Lines -->
    <g stroke-width="1.5">
      <path d="M115 115l45 25" stroke-dasharray="5,5"/>
      <path d="M270 100l-45 35" stroke-dasharray="5,5"/>
      <path d="M115 200l45-35" stroke-dasharray="5,5"/>
      <path d="M270 200l-45-35" stroke-dasharray="5,5"/>
    </g>
    
    <!-- Data Particles -->
    <g fill="url(#grad)">
      <circle cx="140" cy="130" r="3"/>
      <circle cx="250" cy="130" r="3"/>
      <circle cx="140" cy="170" r="3"/>
      <circle cx="250" cy="170" r="3"/>
    </g>
  </g>
</svg>
