<svg version="1.1" id="Layer_1" xmlns="http://www.w3.org/2000/svg" xmlns:xlink="http://www.w3.org/1999/xlink" x="0px" y="0px"
	 width="100%" viewBox="0 0 725 346" enable-background="new 0 0 725 346" xml:space="preserve">
<path fill="#FEFEFE" opacity="1.000000" stroke="none" 
	d="
M548.000000,347.000000 
	C365.375824,347.000000 183.251648,347.000000 1.063731,347.000000 
	C1.063731,231.736084 1.063731,116.472122 1.063731,1.104080 
	C242.666641,1.104080 484.333313,1.104080 725.979004,1.104080 
	C725.979004,116.415085 725.979004,231.707550 725.979004,347.000000 
	C666.805359,347.000000 607.652710,347.000000 548.000000,347.000000 
M709.861572,141.914093 
	C708.791687,137.218872 708.130981,132.383972 706.583801,127.851692 
	C698.198608,103.287910 681.574280,87.640602 655.687805,83.408272 
	C632.216309,79.570778 611.747253,86.630913 596.840576,105.210434 
	C577.641418,129.140091 575.991394,156.619186 586.259644,184.459656 
	C595.139038,208.534622 613.719299,222.445511 639.253723,224.741684 
	C665.460999,227.098373 686.297668,216.688278 700.287720,193.916977 
	C709.974426,178.150009 711.280762,160.725037 709.861572,141.914093 
M42.659935,187.500107 
	C42.660255,175.503036 42.828674,163.502350 42.571239,151.510818 
	C42.479053,147.216782 43.592102,145.790817 48.122520,145.855301 
	C66.780807,146.120865 85.445663,146.029770 104.106133,145.856796 
	C105.776970,145.841324 108.835136,144.359146 108.877594,143.447693 
	C109.254662,135.352066 109.096870,127.231514 109.096870,118.891426 
	C106.722878,118.740868 104.912308,118.528603 103.101456,118.526260 
	C84.939301,118.502785 66.774109,118.333336 48.616848,118.633118 
	C43.641872,118.715248 42.450951,117.115295 42.556183,112.395203 
	C42.853222,99.071770 42.818394,85.734451 42.568924,72.409073 
	C42.488350,68.105148 43.603119,66.721779 48.119801,66.770340 
	C70.611656,67.012146 93.107986,66.808327 115.601532,66.952141 
	C119.302605,66.975807 120.620590,65.912361 120.440163,62.128746 
	C120.154762,56.143833 120.068520,50.115734 120.464310,44.143436 
	C120.745323,39.903091 119.056541,39.209187 115.308296,39.223118 
	C82.316879,39.345730 49.324265,39.387680 16.333559,39.191471 
	C11.556668,39.163067 10.145681,40.446316 10.159574,45.303459 
	C10.322084,102.122337 10.263719,158.941849 10.264237,215.761185 
	C10.264246,216.760925 9.921285,217.961868 10.354353,218.714493 
	C11.050444,219.924225 12.240456,221.715500 13.258115,221.739822 
	C22.863430,221.969345 32.476452,221.876328 42.659786,221.876328 
	C42.659786,210.390045 42.659786,199.445084 42.659935,187.500107 
M212.906937,217.444077 
	C228.119446,173.187607 243.331955,128.931137 258.755188,84.061592 
	C249.978119,84.061592 242.138718,84.450020 234.360977,83.924980 
	C229.178711,83.575150 227.197052,85.454185 225.832397,90.261604 
	C216.706543,122.410385 207.297546,154.478867 197.931488,186.559097 
	C197.622330,187.618027 196.789703,188.524139 195.729630,190.284332 
	C193.946304,184.559235 192.607071,179.928940 191.066147,175.366760 
	C181.170135,146.068024 171.206955,116.791931 161.343643,87.482216 
	C160.462341,84.863358 159.147583,83.868546 156.302948,83.988388 
	C150.479980,84.233704 144.639465,84.061829 138.806168,84.061775 
	C135.269958,84.061737 131.733734,84.061768 127.708839,84.061768 
	C128.480011,86.345787 128.843842,87.603142 129.322540,88.815125 
	C145.572647,129.957657 161.741089,171.133011 178.202377,212.190918 
	C180.429550,217.745987 180.907852,222.636765 179.115936,228.437134 
	C173.620041,246.227188 163.033859,253.865753 145.106262,251.864319 
	C142.401581,251.562378 141.589630,252.571198 141.041092,254.863235 
	C139.725235,260.361572 138.417908,265.874695 136.745575,271.269775 
	C135.834641,274.208527 136.608429,275.383392 139.412170,276.376892 
	C156.209549,282.329041 178.326553,276.452148 190.156647,262.909668 
	C201.510254,249.912659 207.127914,234.087769 212.906937,217.444077 
M524.432312,103.959137 
	C519.856995,113.645554 515.281677,123.331978 510.280457,133.919968 
	C508.625061,131.231064 507.459076,129.467499 506.421814,127.631218 
	C499.548157,115.462791 492.420105,103.425423 485.976959,91.032356 
	C483.143463,85.582230 479.789581,83.457748 473.600494,83.909500 
	C465.228821,84.520576 456.779053,84.061409 447.539124,84.061409 
	C448.690308,86.204384 449.301025,87.496223 450.046173,88.705177 
	C461.574615,107.409294 472.985107,126.188721 484.768890,144.730820 
	C487.335938,148.770096 487.067230,151.657593 484.680725,155.521576 
	C472.173828,175.771591 459.904144,196.168213 447.576599,216.528748 
	C446.697876,217.979996 446.015808,219.550293 444.837372,221.858337 
	C455.147827,221.858337 464.432892,221.717331 473.709503,221.936005 
	C476.889801,222.010956 478.544586,220.756210 479.892578,218.099213 
	C486.290894,205.487762 492.799225,192.932083 499.281372,180.363251 
	C500.986023,177.057983 502.737000,173.776596 504.876740,169.703629 
	C506.382263,172.163147 507.329956,173.678741 508.246124,175.213165 
	C516.776794,189.500549 525.353149,203.761185 533.784363,218.107056 
	C535.408447,220.870483 537.329163,222.006775 540.597107,221.928696 
	C549.258362,221.721695 557.928467,221.902420 566.594727,221.863785 
	C567.608337,221.859268 568.620056,221.447327 570.130676,221.114594 
	C568.856018,219.042404 567.929199,217.486343 566.955505,215.960144 
	C554.600098,196.593887 542.302185,177.190384 529.812317,157.911224 
	C527.813904,154.826492 527.755371,152.564911 529.652771,149.350204 
	C541.576050,129.148758 553.260010,108.806015 565.000732,88.497047 
	C565.693298,87.299065 566.191284,85.988663 567.087830,84.072128 
	C556.438904,84.072128 546.636780,83.950409 536.845032,84.213348 
	C535.494690,84.249619 533.718140,85.927536 532.957214,87.299339 
	C530.054016,92.533463 527.485718,97.953362 524.432312,103.959137 
M315.767883,105.312592 
	C314.879669,106.571968 313.991455,107.831337 313.103241,109.090706 
	C312.674988,109.018478 312.246765,108.946259 311.818542,108.874031 
	C311.037323,100.636467 310.256073,92.398903 309.502411,84.452011 
	C300.211487,84.452011 291.813507,84.452011 283.497955,84.452011 
	C283.497955,130.386215 283.497955,175.916580 283.497955,221.855377 
	C292.662506,221.855377 301.462555,221.675995 310.249237,221.940216 
	C313.967621,222.052048 315.075592,220.997787 315.049225,217.216705 
	C314.883301,193.401382 314.787445,169.581924 315.116577,145.770020 
	C315.180450,141.149551 316.299896,136.049698 318.509369,132.039917 
	C327.239899,116.195724 338.382568,108.103897 357.678650,111.864105 
	C358.605225,112.044662 359.597626,111.887299 360.952850,111.887299 
	C363.014221,102.727371 365.037048,93.738846 367.287567,83.738518 
	C361.168579,83.270042 355.732849,82.262314 350.368042,82.555122 
	C334.876862,83.400642 324.374451,92.416809 315.767883,105.312592 
M398.520874,84.065887 
	C395.069977,84.065887 391.619080,84.065887 388.085175,84.065887 
	C388.085175,130.238205 388.085175,175.890335 388.085175,221.849701 
	C397.135254,221.849701 405.775024,221.659973 414.399902,221.935364 
	C418.302704,222.059982 419.564636,221.023346 419.509399,216.944138 
	C419.277161,199.792450 419.409302,182.635788 419.409485,165.480957 
	C419.409729,139.831970 419.350159,114.182678 419.484131,88.534393 
	C419.502258,85.060448 418.557709,83.807281 415.001984,83.994728 
	C409.853149,84.266159 404.679443,84.065300 398.520874,84.065887 
M389.867188,55.667278 
	C394.558258,59.904751 400.208099,60.549934 406.192383,60.125954 
	C413.440613,59.612419 419.714081,54.809956 421.757843,48.074001 
	C424.111877,40.315422 421.481079,31.781862 415.409637,27.482155 
	C407.557678,21.921516 395.116394,22.980185 388.796753,29.746737 
	C382.458221,36.533516 382.681366,47.042297 389.867188,55.667278 
M141.199249,314.127808 
	C142.493301,306.135803 145.513153,303.048370 151.636063,303.457245 
	C157.252731,303.832306 159.196960,306.810791 159.230362,315.159241 
	C159.250854,320.282684 159.234146,325.406219 159.234146,330.664581 
	C161.476181,330.664581 163.182312,330.664581 165.200043,330.664581 
	C165.200043,325.174408 165.213120,320.031586 165.193054,314.888916 
	C165.185913,313.057739 165.202591,311.216949 165.028915,309.397675 
	C164.373138,302.528564 159.708221,297.704620 152.816772,298.208221 
	C148.145187,298.549561 143.607162,300.718964 139.431381,301.946747 
	C136.058044,300.693237 132.491592,298.414764 128.841858,298.272461 
	C124.977829,298.121796 121.034561,300.003021 118.621468,300.616547 
	C115.737442,299.774078 113.840553,299.219971 111.482285,298.531128 
	C111.482285,309.820923 111.482285,320.222870 111.482285,330.623352 
	C113.497513,330.623352 115.205894,330.623352 117.267982,330.623352 
	C117.267982,324.583496 116.944511,318.910217 117.351082,313.289764 
	C117.842880,306.491211 121.629204,303.121216 127.483536,303.444244 
	C132.954697,303.746155 135.126511,306.682129 135.193527,314.032623 
	C135.244415,319.614044 135.203629,325.196259 135.203629,331.072968 
	C137.611725,330.946167 139.199799,330.862518 141.171936,330.758698 
	C141.171936,325.288330 141.171936,320.154602 141.199249,314.127808 
M581.949219,303.750916 
	C589.679993,303.002930 592.750488,305.652802 592.897400,313.427826 
	C593.006531,319.203369 592.918884,324.982605 592.918884,330.768250 
	C595.175537,330.768250 596.778442,330.768250 598.894287,330.768250 
	C598.894287,325.077728 598.914612,319.619659 598.882019,314.161896 
	C598.872131,312.499268 598.874939,310.810791 598.600586,309.179840 
	C597.312012,301.521881 592.298035,297.226044 584.587708,298.200195 
	C580.519348,298.714203 576.661194,300.892609 572.253540,302.483612 
	C565.309204,296.588104 560.133972,296.230408 552.575562,300.858734 
	C549.605530,299.966736 547.538208,299.345856 545.118164,298.619049 
	C545.118164,309.960052 545.118164,320.233490 545.118164,330.670105 
	C547.055786,330.670105 548.757568,330.670105 550.838379,330.670105 
	C550.838379,327.700226 550.833801,325.058838 550.839722,322.417419 
	C550.846008,319.584381 550.783813,316.748444 550.889465,313.918915 
	C551.145325,307.067963 554.436462,303.453278 560.342651,303.411682 
	C566.028076,303.371613 568.798218,306.702728 568.889038,313.875824 
	C568.960144,319.487427 568.903320,325.100677 568.903320,330.776062 
	C571.128906,330.776062 572.726990,330.776062 574.886719,330.776062 
	C574.886719,324.927856 574.834045,319.304230 574.903381,313.682129 
	C574.958740,309.189392 576.415466,305.501129 581.949219,303.750916 
M399.006073,289.722595 
	C399.490295,284.282440 396.068268,286.136108 392.816345,286.357574 
	C392.816345,291.692841 392.816345,296.707611 392.816345,301.988434 
	C383.086609,296.390625 374.836884,296.980957 369.291992,303.331299 
	C364.054871,309.329163 363.970459,319.299835 369.104919,325.430756 
	C374.596405,331.988037 382.844818,332.637817 392.868378,327.071167 
	C392.723114,331.787323 395.533142,331.389191 399.006378,330.625366 
	C399.006378,317.222168 399.006378,303.947937 399.006073,289.722595 
M82.896248,311.676788 
	C86.081314,312.607941 89.541016,313.051056 92.358032,314.636261 
	C94.343254,315.753418 96.873611,318.651245 96.600243,320.339417 
	C96.255508,322.468262 93.607903,324.793549 91.388725,325.882629 
	C89.344818,326.885651 86.442970,326.887634 84.114632,326.398895 
	C80.022636,325.539948 76.079903,323.969940 71.803459,322.611572 
	C71.321793,323.841400 70.749809,325.301880 70.124886,326.897522 
	C77.636963,331.884460 85.392921,333.248016 93.708313,330.985107 
	C99.481407,329.414062 102.849693,325.289856 103.008797,320.049042 
	C103.171059,314.704041 100.647377,311.161743 94.715416,309.009888 
	C91.290535,307.767548 87.682808,307.038940 84.210106,305.916046 
	C80.679634,304.774506 76.776718,303.519745 77.223373,298.808136 
	C77.669754,294.099396 81.538589,292.393463 85.508759,292.524536 
	C90.163727,292.678223 94.782394,293.931580 99.751015,294.763947 
	C100.088425,293.745972 100.579628,292.264008 101.112335,290.656860 
	C93.408752,286.599060 85.899818,285.556580 78.201416,288.874664 
	C71.137871,291.919159 68.468567,300.873596 73.328766,306.224823 
	C75.515152,308.632141 79.179924,309.696716 82.896248,311.676788 
M446.584106,314.655792 
	C447.943848,316.712006 450.729706,319.140442 450.314026,320.733276 
	C449.753357,322.881378 446.979614,324.917145 444.683533,326.003448 
	C442.759491,326.913788 440.051117,326.880524 437.880432,326.401733 
	C433.782684,325.497833 429.821899,323.972961 425.591858,322.639282 
	C425.115234,323.740387 424.536499,325.077332 423.836212,326.695099 
	C431.014038,331.913483 438.750488,333.201752 447.067169,331.063263 
	C453.185120,329.490143 456.670593,325.336487 456.855103,319.937866 
	C457.033661,314.713165 454.088135,310.922089 447.894409,308.794952 
	C443.971649,307.447845 439.919342,306.480103 435.986237,305.160095 
	C432.949280,304.140869 430.007019,302.115997 431.212067,298.721527 
	C432.044647,296.376221 434.847382,293.317963 436.992249,293.130920 
	C442.220734,292.675018 447.578705,293.703918 453.603241,294.193329 
	C453.769440,293.767883 454.332245,292.327240 454.946045,290.756073 
	C447.825684,286.720001 440.759613,285.904053 433.420563,288.183594 
	C428.023743,289.859802 425.024902,293.964020 424.905884,299.225739 
	C424.783173,304.649750 426.972534,308.060333 432.583893,310.170624 
	C436.926910,311.803894 441.458130,312.936584 446.584106,314.655792 
M202.232590,299.100037 
	C201.643295,299.955566 201.054001,300.811127 200.465500,301.665497 
	C191.696762,296.416229 183.395050,296.934692 177.745316,303.073761 
	C172.573364,308.693665 171.877136,318.851227 176.974304,324.712311 
	C179.229019,327.304962 182.777023,329.964935 185.965195,330.277771 
	C190.900497,330.761993 196.030609,329.260681 201.161484,328.590393 
	C200.931183,332.121674 203.922348,331.125336 206.833954,330.773865 
	C206.833954,320.038788 206.833954,309.630005 206.833954,298.998810 
	C205.365601,298.998810 204.210312,298.998810 202.232590,299.100037 
M518.953979,330.831177 
	C521.884705,329.534760 524.815491,328.238373 527.737488,326.945831 
	C527.873047,328.184998 528.012146,329.456879 528.149780,330.714813 
	C530.010742,330.714813 531.591797,330.714813 533.251221,330.714813 
	C533.251221,320.054810 533.251221,309.687531 533.251221,298.278778 
	C530.508118,299.243988 528.390015,299.989319 525.522522,300.998291 
	C520.495483,297.178284 513.988403,296.615021 507.476776,300.376495 
	C501.347931,303.916870 499.427551,309.745026 499.989380,316.559906 
	C500.735352,325.608826 507.630005,331.067169 518.953979,330.831177 
M314.903564,330.050385 
	C314.903564,319.767975 314.903564,309.485535 314.903564,298.142853 
	C312.062592,299.201538 310.007355,299.967438 307.132324,301.038818 
	C299.241730,296.363464 290.836090,296.953094 285.271179,303.354645 
	C280.149872,309.245850 279.957428,318.926788 284.838806,325.105865 
	C290.138855,331.814911 298.432159,332.570221 308.905365,327.133362 
	C308.647766,331.576721 311.397034,331.397797 314.903564,330.050385 
M478.586090,316.979614 
	C483.743683,315.941498 488.901245,314.903351 493.945312,313.888062 
	C493.865601,304.503357 487.848358,298.310760 479.062714,298.014557 
	C470.020996,297.709747 462.919708,303.900635 462.101715,312.801056 
	C461.242188,322.153351 467.396912,329.725647 476.796814,330.880676 
	C483.231842,331.671356 491.240662,328.798645 491.868134,325.187988 
	C491.018372,324.298553 490.042267,323.276886 489.121948,322.313568 
	C480.124512,327.959198 472.046021,326.517395 469.483063,318.826111 
	C472.255371,318.238678 474.999573,317.657166 478.586090,316.979614 
M638.161194,324.737549 
	C636.313110,323.139648 634.464966,321.541779 631.681396,319.135101 
	C641.483337,317.160309 649.715942,315.501709 657.853027,313.862335 
	C657.573975,306.945557 655.011475,302.583282 649.961853,299.933624 
	C642.655823,296.099976 633.612366,298.073730 628.932922,304.523315 
	C624.142822,311.125366 624.989136,320.985565 630.815491,326.456726 
	C636.542847,331.834930 647.724182,332.553711 653.538696,328.002686 
	C656.756592,325.484009 655.090088,323.996613 652.651489,322.536530 
	C646.522949,326.177521 645.286438,326.394958 638.161194,324.737549 
M326.843231,330.712738 
	C328.437805,330.800659 330.032379,330.888611 332.446716,331.021729 
	C332.446716,324.435242 332.007629,318.288116 332.569122,312.233765 
	C333.140320,306.075012 337.272461,303.079895 343.149109,303.444153 
	C348.605347,303.782379 351.033875,306.723724 351.122772,313.341858 
	C351.200317,319.114319 351.138947,324.888641 351.138947,330.619263 
	C353.483612,330.619263 355.184479,330.619263 357.106262,330.619263 
	C357.106262,325.249542 357.113373,320.270599 357.102264,315.291718 
	C357.098541,313.628815 357.122223,311.960846 357.006836,310.304047 
	C356.478271,302.715332 351.597321,297.768127 344.046570,298.146057 
	C340.094879,298.343872 336.218231,300.041382 333.550354,300.737427 
	C330.827759,299.910339 328.851135,299.309906 326.323303,298.541992 
	C326.323303,309.736603 326.323303,319.853943 326.843231,330.712738 
M720.090454,324.417816 
	C721.417053,318.284058 719.535828,314.983856 713.448853,313.261169 
	C710.103149,312.314301 706.579468,311.948669 703.301575,310.834015 
	C702.030090,310.401581 700.398193,308.612701 700.417053,307.466278 
	C700.436890,306.264923 702.201172,304.124481 703.272034,304.080658 
	C707.290344,303.916199 711.337280,304.433319 715.372192,304.714081 
	C715.996155,304.757507 716.613098,304.900665 717.484436,305.037018 
	C718.103027,303.619385 718.662598,302.336914 719.358459,300.742065 
	C712.684326,297.680664 706.339844,296.770691 699.812439,299.651123 
	C696.134033,301.274353 694.042664,304.187195 694.237610,308.276703 
	C694.427673,312.264130 696.966675,314.615021 700.587524,315.701447 
	C703.437012,316.556519 706.535156,316.707184 709.257812,317.819458 
	C711.233521,318.626587 712.775818,320.494446 714.511414,321.889282 
	C712.470459,323.222870 710.422180,325.672729 708.390198,325.659332 
	C704.064697,325.630829 699.747620,324.322723 695.124634,323.484192 
	C694.654114,324.529419 694.066101,325.835663 693.498291,327.096954 
	C702.814209,333.185150 714.163513,332.252228 720.090454,324.417816 
M683.495422,298.832611 
	C678.620850,299.123199 673.627747,298.864319 668.909790,299.881378 
	C665.252197,300.669861 663.465637,304.108978 663.523010,307.987335 
	C663.582520,312.008606 665.928101,314.485229 669.591858,315.602203 
	C672.598633,316.518860 675.829590,316.769440 678.750977,317.872192 
	C680.667419,318.595581 682.209656,320.310486 683.919495,321.581360 
	C681.948364,323.010651 679.987000,325.612457 678.004089,325.628937 
	C673.665466,325.664978 669.315857,324.389069 664.411499,323.553772 
	C664.013306,324.417450 663.370728,325.811157 662.756470,327.143494 
	C669.822937,331.511749 678.644836,332.243011 684.606628,329.227631 
	C688.016663,327.502899 690.040833,324.867279 689.922852,320.940613 
	C689.806885,317.083893 687.467285,314.870941 684.014343,313.783295 
	C681.648987,313.038208 679.159790,312.691101 676.783203,311.975830 
	C673.960632,311.126343 669.407593,311.664612 669.815613,307.290649 
	C670.248718,302.647614 674.731079,303.213837 678.139099,303.138153 
	C679.596069,303.105774 681.079163,303.611816 682.526428,303.970154 
	C683.789368,304.282928 685.018616,304.731781 686.547424,305.209412 
	C687.225159,303.809784 687.839722,302.540649 688.640015,300.887848 
	C686.968018,300.160553 685.644958,299.585052 683.495422,298.832611 
M242.992233,300.552399 
	C242.993576,307.210510 242.908981,313.869995 243.018311,320.526337 
	C243.151123,328.613312 249.364166,332.950745 256.949982,330.496765 
	C260.271881,329.422180 260.848480,327.803619 258.520233,325.203461 
	C252.089447,326.580566 249.387131,325.698273 249.131287,321.559540 
	C248.776093,315.813202 249.041977,310.028473 249.041977,303.778442 
	C252.328262,303.778442 255.077347,303.778442 258.208801,303.778442 
	C258.015503,301.873901 257.876404,300.503052 257.708832,298.851807 
	C254.662796,298.851807 252.050125,298.851807 249.181244,298.851807 
	C249.019226,296.471558 248.877914,294.395508 248.734802,292.293152 
	C246.692459,292.293152 244.985550,292.293152 242.992233,292.293152 
	C242.992233,294.953217 242.992233,297.263672 242.992233,300.552399 
M609.882874,299.508057 
	C609.889343,306.812317 609.795288,314.118469 609.932678,321.420258 
	C610.052185,327.770813 613.880920,331.185272 620.085083,331.023956 
	C623.824890,330.926697 624.744080,329.384399 623.249756,326.140381 
	C616.447815,325.617218 615.865967,325.014069 615.849487,318.240356 
	C615.823730,307.656403 615.842712,297.072266 615.842712,286.312012 
	C613.623047,286.312012 611.923889,286.312012 609.882812,286.312012 
	C609.882812,290.592499 609.882812,294.551880 609.882874,299.508057 
M234.562302,298.102600 
	C231.093399,299.329773 227.624481,300.556946 225.817245,301.196289 
	C222.981293,300.060852 221.136185,299.322144 218.806061,298.389221 
	C218.806061,309.907349 218.806061,320.291412 218.806061,330.821594 
	C220.745117,330.821594 222.367126,330.821594 224.552963,330.821594 
	C224.552963,326.701874 224.547775,322.756104 224.553955,318.810364 
	C224.571869,307.391693 225.337799,306.316589 235.979538,302.936005 
	C235.979538,301.840576 236.033798,300.682159 235.952484,299.533356 
	C235.920532,299.082245 235.585144,298.652679 234.562302,298.102600 
z"/>
<path fill="#A4025C" opacity="1.000000" stroke="none" 
	d="
M709.896240,142.374725 
	C711.280762,160.725037 709.974426,178.150009 700.287720,193.916977 
	C686.297668,216.688278 665.460999,227.098373 639.253723,224.741684 
	C613.719299,222.445511 595.139038,208.534622 586.259644,184.459656 
	C575.991394,156.619186 577.641418,129.140091 596.840576,105.210434 
	C611.747253,86.630913 632.216309,79.570778 655.687805,83.408272 
	C681.574280,87.640602 698.198608,103.287910 706.583801,127.851692 
	C708.130981,132.383972 708.791687,137.218872 709.896240,142.374725 
M617.637085,178.651260 
	C618.379211,180.135147 619.087952,181.636841 619.868835,183.100021 
	C625.266418,193.213120 633.755798,198.876877 645.153381,198.908737 
	C656.701538,198.941040 665.405640,193.396530 671.018921,183.142212 
	C677.979431,170.426712 678.442566,156.696136 676.820251,142.866180 
	C675.581360,132.304657 672.099670,122.328407 663.531189,115.220627 
	C647.614319,102.017181 624.447937,109.371429 617.336670,129.986343 
	C611.852417,145.884689 612.131104,161.953995 617.637085,178.651260 
z"/>
<path fill="#A5055D" opacity="1.000000" stroke="none" 
	d="
M42.659859,188.000122 
	C42.659786,199.445084 42.659786,210.390045 42.659786,221.876328 
	C32.476452,221.876328 22.863430,221.969345 13.258115,221.739822 
	C12.240456,221.715500 11.050444,219.924225 10.354353,218.714493 
	C9.921285,217.961868 10.264246,216.760925 10.264237,215.761185 
	C10.263719,158.941849 10.322084,102.122337 10.159574,45.303459 
	C10.145681,40.446316 11.556668,39.163067 16.333559,39.191471 
	C49.324265,39.387680 82.316879,39.345730 115.308296,39.223118 
	C119.056541,39.209187 120.745323,39.903091 120.464310,44.143436 
	C120.068520,50.115734 120.154762,56.143833 120.440163,62.128746 
	C120.620590,65.912361 119.302605,66.975807 115.601532,66.952141 
	C93.107986,66.808327 70.611656,67.012146 48.119801,66.770340 
	C43.603119,66.721779 42.488350,68.105148 42.568924,72.409073 
	C42.818394,85.734451 42.853222,99.071770 42.556183,112.395203 
	C42.450951,117.115295 43.641872,118.715248 48.616848,118.633118 
	C66.774109,118.333336 84.939301,118.502785 103.101456,118.526260 
	C104.912308,118.528603 106.722878,118.740868 109.096870,118.891426 
	C109.096870,127.231514 109.254662,135.352066 108.877594,143.447693 
	C108.835136,144.359146 105.776970,145.841324 104.106133,145.856796 
	C85.445663,146.029770 66.780807,146.120865 48.122520,145.855301 
	C43.592102,145.790817 42.479053,147.216782 42.571239,151.510818 
	C42.828674,163.502350 42.660255,175.503036 42.659859,188.000122 
z"/>
<path fill="#A4035C" opacity="1.000000" stroke="none" 
	d="
M212.761444,217.808792 
	C207.127914,234.087769 201.510254,249.912659 190.156647,262.909668 
	C178.326553,276.452148 156.209549,282.329041 139.412170,276.376892 
	C136.608429,275.383392 135.834641,274.208527 136.745575,271.269775 
	C138.417908,265.874695 139.725235,260.361572 141.041092,254.863235 
	C141.589630,252.571198 142.401581,251.562378 145.106262,251.864319 
	C163.033859,253.865753 173.620041,246.227188 179.115936,228.437134 
	C180.907852,222.636765 180.429550,217.745987 178.202377,212.190918 
	C161.741089,171.133011 145.572647,129.957657 129.322540,88.815125 
	C128.843842,87.603142 128.480011,86.345787 127.708839,84.061768 
	C131.733734,84.061768 135.269958,84.061737 138.806168,84.061775 
	C144.639465,84.061829 150.479980,84.233704 156.302948,83.988388 
	C159.147583,83.868546 160.462341,84.863358 161.343643,87.482216 
	C171.206955,116.791931 181.170135,146.068024 191.066147,175.366760 
	C192.607071,179.928940 193.946304,184.559235 195.729630,190.284332 
	C196.789703,188.524139 197.622330,187.618027 197.931488,186.559097 
	C207.297546,154.478867 216.706543,122.410385 225.832397,90.261604 
	C227.197052,85.454185 229.178711,83.575150 234.360977,83.924980 
	C242.138718,84.450020 249.978119,84.061592 258.755188,84.061592 
	C243.331955,128.931137 228.119446,173.187607 212.761444,217.808792 
z"/>
<path fill="#A4035C" opacity="1.000000" stroke="none" 
	d="
M524.612305,103.631500 
	C527.485718,97.953362 530.054016,92.533463 532.957214,87.299339 
	C533.718140,85.927536 535.494690,84.249619 536.845032,84.213348 
	C546.636780,83.950409 556.438904,84.072128 567.087830,84.072128 
	C566.191284,85.988663 565.693298,87.299065 565.000732,88.497047 
	C553.260010,108.806015 541.576050,129.148758 529.652771,149.350204 
	C527.755371,152.564911 527.813904,154.826492 529.812317,157.911224 
	C542.302185,177.190384 554.600098,196.593887 566.955505,215.960144 
	C567.929199,217.486343 568.856018,219.042404 570.130676,221.114594 
	C568.620056,221.447327 567.608337,221.859268 566.594727,221.863785 
	C557.928467,221.902420 549.258362,221.721695 540.597107,221.928696 
	C537.329163,222.006775 535.408447,220.870483 533.784363,218.107056 
	C525.353149,203.761185 516.776794,189.500549 508.246124,175.213165 
	C507.329956,173.678741 506.382263,172.163147 504.876740,169.703629 
	C502.737000,173.776596 500.986023,177.057983 499.281372,180.363251 
	C492.799225,192.932083 486.290894,205.487762 479.892578,218.099213 
	C478.544586,220.756210 476.889801,222.010956 473.709503,221.936005 
	C464.432892,221.717331 455.147827,221.858337 444.837372,221.858337 
	C446.015808,219.550293 446.697876,217.979996 447.576599,216.528748 
	C459.904144,196.168213 472.173828,175.771591 484.680725,155.521576 
	C487.067230,151.657593 487.335938,148.770096 484.768890,144.730820 
	C472.985107,126.188721 461.574615,107.409294 450.046173,88.705177 
	C449.301025,87.496223 448.690308,86.204384 447.539124,84.061409 
	C456.779053,84.061409 465.228821,84.520576 473.600494,83.909500 
	C479.789581,83.457748 483.143463,85.582230 485.976959,91.032356 
	C492.420105,103.425423 499.548157,115.462791 506.421814,127.631218 
	C507.459076,129.467499 508.625061,131.231064 510.280457,133.919968 
	C515.281677,123.331978 519.856995,113.645554 524.612305,103.631500 
z"/>
<path fill="#A4045C" opacity="1.000000" stroke="none" 
	d="
M315.931213,104.991699 
	C324.374451,92.416809 334.876862,83.400642 350.368042,82.555122 
	C355.732849,82.262314 361.168579,83.270042 367.287567,83.738518 
	C365.037048,93.738846 363.014221,102.727371 360.952850,111.887299 
	C359.597626,111.887299 358.605225,112.044662 357.678650,111.864105 
	C338.382568,108.103897 327.239899,116.195724 318.509369,132.039917 
	C316.299896,136.049698 315.180450,141.149551 315.116577,145.770020 
	C314.787445,169.581924 314.883301,193.401382 315.049225,217.216705 
	C315.075592,220.997787 313.967621,222.052048 310.249237,221.940216 
	C301.462555,221.675995 292.662506,221.855377 283.497955,221.855377 
	C283.497955,175.916580 283.497955,130.386215 283.497955,84.452011 
	C291.813507,84.452011 300.211487,84.452011 309.502411,84.452011 
	C310.256073,92.398903 311.037323,100.636467 311.818542,108.874031 
	C312.246765,108.946259 312.674988,109.018478 313.103241,109.090706 
	C313.991455,107.831337 314.879669,106.571968 315.931213,104.991699 
z"/>
<path fill="#A3015B" opacity="1.000000" stroke="none" 
	d="
M399.018616,84.065895 
	C404.679443,84.065300 409.853149,84.266159 415.001984,83.994728 
	C418.557709,83.807281 419.502258,85.060448 419.484131,88.534393 
	C419.350159,114.182678 419.409729,139.831970 419.409485,165.480957 
	C419.409302,182.635788 419.277161,199.792450 419.509399,216.944138 
	C419.564636,221.023346 418.302704,222.059982 414.399902,221.935364 
	C405.775024,221.659973 397.135254,221.849701 388.085175,221.849701 
	C388.085175,175.890335 388.085175,130.238205 388.085175,84.065887 
	C391.619080,84.065887 395.069977,84.065887 399.018616,84.065895 
z"/>
<path fill="#A4045C" opacity="1.000000" stroke="none" 
	d="
M389.601746,55.411530 
	C382.681366,47.042297 382.458221,36.533516 388.796753,29.746737 
	C395.116394,22.980185 407.557678,21.921516 415.409637,27.482155 
	C421.481079,31.781862 424.111877,40.315422 421.757843,48.074001 
	C419.714081,54.809956 413.440613,59.612419 406.192383,60.125954 
	C400.208099,60.549934 394.558258,59.904751 389.601746,55.411530 
z"/>
<path fill="#468EA8" opacity="1.000000" stroke="none" 
	d="
M141.185593,314.574341 
	C141.171936,320.154602 141.171936,325.288330 141.171936,330.758698 
	C139.199799,330.862518 137.611725,330.946167 135.203629,331.072968 
	C135.203629,325.196259 135.244415,319.614044 135.193527,314.032623 
	C135.126511,306.682129 132.954697,303.746155 127.483536,303.444244 
	C121.629204,303.121216 117.842880,306.491211 117.351082,313.289764 
	C116.944511,318.910217 117.267982,324.583496 117.267982,330.623352 
	C115.205894,330.623352 113.497513,330.623352 111.482285,330.623352 
	C111.482285,320.222870 111.482285,309.820923 111.482285,298.531128 
	C113.840553,299.219971 115.737442,299.774078 118.621468,300.616547 
	C121.034561,300.003021 124.977829,298.121796 128.841858,298.272461 
	C132.491592,298.414764 136.058044,300.693237 139.431381,301.946747 
	C143.607162,300.718964 148.145187,298.549561 152.816772,298.208221 
	C159.708221,297.704620 164.373138,302.528564 165.028915,309.397675 
	C165.202591,311.216949 165.185913,313.057739 165.193054,314.888916 
	C165.213120,320.031586 165.200043,325.174408 165.200043,330.664581 
	C163.182312,330.664581 161.476181,330.664581 159.234146,330.664581 
	C159.234146,325.406219 159.250854,320.282684 159.230362,315.159241 
	C159.196960,306.810791 157.252731,303.832306 151.636063,303.457245 
	C145.513153,303.048370 142.493301,306.135803 141.185593,314.574341 
z"/>
<path fill="#448DA7" opacity="1.000000" stroke="none" 
	d="
M581.538513,303.845459 
	C576.415466,305.501129 574.958740,309.189392 574.903381,313.682129 
	C574.834045,319.304230 574.886719,324.927856 574.886719,330.776062 
	C572.726990,330.776062 571.128906,330.776062 568.903320,330.776062 
	C568.903320,325.100677 568.960144,319.487427 568.889038,313.875824 
	C568.798218,306.702728 566.028076,303.371613 560.342651,303.411682 
	C554.436462,303.453278 551.145325,307.067963 550.889465,313.918915 
	C550.783813,316.748444 550.846008,319.584381 550.839722,322.417419 
	C550.833801,325.058838 550.838379,327.700226 550.838379,330.670105 
	C548.757568,330.670105 547.055786,330.670105 545.118164,330.670105 
	C545.118164,320.233490 545.118164,309.960052 545.118164,298.619049 
	C547.538208,299.345856 549.605530,299.966736 552.575562,300.858734 
	C560.133972,296.230408 565.309204,296.588104 572.253540,302.483612 
	C576.661194,300.892609 580.519348,298.714203 584.587708,298.200195 
	C592.298035,297.226044 597.312012,301.521881 598.600586,309.179840 
	C598.874939,310.810791 598.872131,312.499268 598.882019,314.161896 
	C598.914612,319.619659 598.894287,325.077728 598.894287,330.768250 
	C596.778442,330.768250 595.175537,330.768250 592.918884,330.768250 
	C592.918884,324.982605 593.006531,319.203369 592.897400,313.427826 
	C592.750488,305.652802 589.679993,303.002930 581.538513,303.845459 
z"/>
<path fill="#428CA6" opacity="1.000000" stroke="none" 
	d="
M399.006226,290.198151 
	C399.006378,303.947937 399.006378,317.222168 399.006378,330.625366 
	C395.533142,331.389191 392.723114,331.787323 392.868378,327.071167 
	C382.844818,332.637817 374.596405,331.988037 369.104919,325.430756 
	C363.970459,319.299835 364.054871,309.329163 369.291992,303.331299 
	C374.836884,296.980957 383.086609,296.390625 392.816345,301.988434 
	C392.816345,296.707611 392.816345,291.692841 392.816345,286.357574 
	C396.068268,286.136108 399.490295,284.282440 399.006226,290.198151 
M392.926727,316.967285 
	C394.546906,306.790558 386.341553,301.950500 379.916321,303.376312 
	C374.611877,304.553406 371.136047,309.057770 371.204224,314.612427 
	C371.272278,320.152832 374.872559,324.628143 380.128387,325.705475 
	C385.625549,326.832275 390.048309,324.056335 392.926727,316.967285 
z"/>
<path fill="#458DA7" opacity="1.000000" stroke="none" 
	d="
M82.535072,311.523682 
	C79.179924,309.696716 75.515152,308.632141 73.328766,306.224823 
	C68.468567,300.873596 71.137871,291.919159 78.201416,288.874664 
	C85.899818,285.556580 93.408752,286.599060 101.112335,290.656860 
	C100.579628,292.264008 100.088425,293.745972 99.751015,294.763947 
	C94.782394,293.931580 90.163727,292.678223 85.508759,292.524536 
	C81.538589,292.393463 77.669754,294.099396 77.223373,298.808136 
	C76.776718,303.519745 80.679634,304.774506 84.210106,305.916046 
	C87.682808,307.038940 91.290535,307.767548 94.715416,309.009888 
	C100.647377,311.161743 103.171059,314.704041 103.008797,320.049042 
	C102.849693,325.289856 99.481407,329.414062 93.708313,330.985107 
	C85.392921,333.248016 77.636963,331.884460 70.124886,326.897522 
	C70.749809,325.301880 71.321793,323.841400 71.803459,322.611572 
	C76.079903,323.969940 80.022636,325.539948 84.114632,326.398895 
	C86.442970,326.887634 89.344818,326.885651 91.388725,325.882629 
	C93.607903,324.793549 96.255508,322.468262 96.600243,320.339417 
	C96.873611,318.651245 94.343254,315.753418 92.358032,314.636261 
	C89.541016,313.051056 86.081314,312.607941 82.535072,311.523682 
z"/>
<path fill="#458DA7" opacity="1.000000" stroke="none" 
	d="
M446.244904,314.473785 
	C441.458130,312.936584 436.926910,311.803894 432.583893,310.170624 
	C426.972534,308.060333 424.783173,304.649750 424.905884,299.225739 
	C425.024902,293.964020 428.023743,289.859802 433.420563,288.183594 
	C440.759613,285.904053 447.825684,286.720001 454.946045,290.756073 
	C454.332245,292.327240 453.769440,293.767883 453.603241,294.193329 
	C447.578705,293.703918 442.220734,292.675018 436.992249,293.130920 
	C434.847382,293.317963 432.044647,296.376221 431.212067,298.721527 
	C430.007019,302.115997 432.949280,304.140869 435.986237,305.160095 
	C439.919342,306.480103 443.971649,307.447845 447.894409,308.794952 
	C454.088135,310.922089 457.033661,314.713165 456.855103,319.937866 
	C456.670593,325.336487 453.185120,329.490143 447.067169,331.063263 
	C438.750488,333.201752 431.014038,331.913483 423.836212,326.695099 
	C424.536499,325.077332 425.115234,323.740387 425.591858,322.639282 
	C429.821899,323.972961 433.782684,325.497833 437.880432,326.401733 
	C440.051117,326.880524 442.759491,326.913788 444.683533,326.003448 
	C446.979614,324.917145 449.753357,322.881378 450.314026,320.733276 
	C450.729706,319.140442 447.943848,316.712006 446.244904,314.473785 
z"/>
<path fill="#448DA7" opacity="1.000000" stroke="none" 
	d="
M202.643799,299.049438 
	C204.210312,298.998810 205.365601,298.998810 206.833954,298.998810 
	C206.833954,309.630005 206.833954,320.038788 206.833954,330.773865 
	C203.922348,331.125336 200.931183,332.121674 201.161484,328.590393 
	C196.030609,329.260681 190.900497,330.761993 185.965195,330.277771 
	C182.777023,329.964935 179.229019,327.304962 176.974304,324.712311 
	C171.877136,318.851227 172.573364,308.693665 177.745316,303.073761 
	C183.395050,296.934692 191.696762,296.416229 200.465500,301.665497 
	C201.054001,300.811127 201.643295,299.955566 202.643799,299.049438 
M195.055939,304.134735 
	C187.711594,302.069672 181.835388,304.667572 180.118073,310.738861 
	C178.154205,317.681824 181.600616,324.070679 188.129593,325.590393 
	C193.023193,326.729431 198.018188,324.316437 200.181580,319.768311 
	C202.788086,314.288605 201.163284,308.680695 195.055939,304.134735 
z"/>
<path fill="#418BA6" opacity="1.000000" stroke="none" 
	d="
M518.538940,330.869080 
	C507.630005,331.067169 500.735352,325.608826 499.989380,316.559906 
	C499.427551,309.745026 501.347931,303.916870 507.476776,300.376495 
	C513.988403,296.615021 520.495483,297.178284 525.522522,300.998291 
	C528.390015,299.989319 530.508118,299.243988 533.251221,298.278778 
	C533.251221,309.687531 533.251221,320.054810 533.251221,330.714813 
	C531.591797,330.714813 530.010742,330.714813 528.149780,330.714813 
	C528.012146,329.456879 527.873047,328.184998 527.737488,326.945831 
	C524.815491,328.238373 521.884705,329.534760 518.538940,330.869080 
M527.167236,317.547974 
	C528.398560,310.033844 525.379822,304.786255 519.005310,303.359711 
	C513.632996,302.157501 508.035614,305.348541 506.367401,310.564575 
	C504.421478,316.648956 507.151123,322.937622 512.659851,325.061432 
	C518.677979,327.381592 523.996643,324.879883 527.167236,317.547974 
z"/>
<path fill="#428CA6" opacity="1.000000" stroke="none" 
	d="
M314.654022,330.423248 
	C311.397034,331.397797 308.647766,331.576721 308.905365,327.133362 
	C298.432159,332.570221 290.138855,331.814911 284.838806,325.105865 
	C279.957428,318.926788 280.149872,309.245850 285.271179,303.354645 
	C290.836090,296.953094 299.241730,296.363464 307.132324,301.038818 
	C310.007355,299.967438 312.062592,299.201538 314.903564,298.142853 
	C314.903564,309.485535 314.903564,319.767975 314.654022,330.423248 
M308.183807,309.724579 
	C304.866577,304.107941 300.365967,302.028625 295.053040,303.658051 
	C290.034424,305.197235 286.942413,309.687286 287.225159,315.025208 
	C287.513458,320.468018 290.920227,324.661255 296.050903,325.675507 
	C303.312866,327.111084 311.389648,321.039429 308.183807,309.724579 
z"/>
<path fill="#458EA7" opacity="1.000000" stroke="none" 
	d="
M478.164917,317.027649 
	C474.999573,317.657166 472.255371,318.238678 469.483063,318.826111 
	C472.046021,326.517395 480.124512,327.959198 489.121948,322.313568 
	C490.042267,323.276886 491.018372,324.298553 491.868134,325.187988 
	C491.240662,328.798645 483.231842,331.671356 476.796814,330.880676 
	C467.396912,329.725647 461.242188,322.153351 462.101715,312.801056 
	C462.919708,303.900635 470.020996,297.709747 479.062714,298.014557 
	C487.848358,298.310760 493.865601,304.503357 493.945312,313.888062 
	C488.901245,314.903351 483.743683,315.941498 478.164917,317.027649 
M481.624298,303.477478 
	C472.893616,302.192566 467.850861,306.191559 468.509033,314.587067 
	C475.089142,313.343109 481.596985,312.112793 488.104828,310.882507 
	C488.315247,310.362335 488.525635,309.842163 488.736053,309.322021 
	C486.604065,307.484894 484.472107,305.647766 481.624298,303.477478 
z"/>
<path fill="#458DA7" opacity="1.000000" stroke="none" 
	d="
M638.536865,324.861389 
	C645.286438,326.394958 646.522949,326.177521 652.651489,322.536530 
	C655.090088,323.996613 656.756592,325.484009 653.538696,328.002686 
	C647.724182,332.553711 636.542847,331.834930 630.815491,326.456726 
	C624.989136,320.985565 624.142822,311.125366 628.932922,304.523315 
	C633.612366,298.073730 642.655823,296.099976 649.961853,299.933624 
	C655.011475,302.583282 657.573975,306.945557 657.853027,313.862335 
	C649.715942,315.501709 641.483337,317.160309 631.681396,319.135101 
	C634.464966,321.541779 636.313110,323.139648 638.536865,324.861389 
M646.291382,303.873566 
	C637.605469,301.459869 631.510620,305.841644 632.408813,314.529114 
	C638.966492,313.305695 645.471191,312.092133 653.498047,310.594604 
	C650.633850,307.762634 648.821777,305.971008 646.291382,303.873566 
z"/>
<path fill="#458DA7" opacity="1.000000" stroke="none" 
	d="
M326.583252,330.342010 
	C326.323303,319.853943 326.323303,309.736603 326.323303,298.541992 
	C328.851135,299.309906 330.827759,299.910339 333.550354,300.737427 
	C336.218231,300.041382 340.094879,298.343872 344.046570,298.146057 
	C351.597321,297.768127 356.478271,302.715332 357.006836,310.304047 
	C357.122223,311.960846 357.098541,313.628815 357.102264,315.291718 
	C357.113373,320.270599 357.106262,325.249542 357.106262,330.619263 
	C355.184479,330.619263 353.483612,330.619263 351.138947,330.619263 
	C351.138947,324.888641 351.200317,319.114319 351.122772,313.341858 
	C351.033875,306.723724 348.605347,303.782379 343.149109,303.444153 
	C337.272461,303.079895 333.140320,306.075012 332.569122,312.233765 
	C332.007629,318.288116 332.446716,324.435242 332.446716,331.021729 
	C330.032379,330.888611 328.437805,330.800659 326.583252,330.342010 
z"/>
<path fill="#458EA7" opacity="1.000000" stroke="none" 
	d="
M719.959961,324.771851 
	C714.163513,332.252228 702.814209,333.185150 693.498291,327.096954 
	C694.066101,325.835663 694.654114,324.529419 695.124634,323.484192 
	C699.747620,324.322723 704.064697,325.630829 708.390198,325.659332 
	C710.422180,325.672729 712.470459,323.222870 714.511414,321.889282 
	C712.775818,320.494446 711.233521,318.626587 709.257812,317.819458 
	C706.535156,316.707184 703.437012,316.556519 700.587524,315.701447 
	C696.966675,314.615021 694.427673,312.264130 694.237610,308.276703 
	C694.042664,304.187195 696.134033,301.274353 699.812439,299.651123 
	C706.339844,296.770691 712.684326,297.680664 719.358459,300.742065 
	C718.662598,302.336914 718.103027,303.619385 717.484436,305.037018 
	C716.613098,304.900665 715.996155,304.757507 715.372192,304.714081 
	C711.337280,304.433319 707.290344,303.916199 703.272034,304.080658 
	C702.201172,304.124481 700.436890,306.264923 700.417053,307.466278 
	C700.398193,308.612701 702.030090,310.401581 703.301575,310.834015 
	C706.579468,311.948669 710.103149,312.314301 713.448853,313.261169 
	C719.535828,314.983856 721.417053,318.284058 719.959961,324.771851 
z"/>
<path fill="#458EA7" opacity="1.000000" stroke="none" 
	d="
M683.908691,298.921082 
	C685.644958,299.585052 686.968018,300.160553 688.640015,300.887848 
	C687.839722,302.540649 687.225159,303.809784 686.547424,305.209412 
	C685.018616,304.731781 683.789368,304.282928 682.526428,303.970154 
	C681.079163,303.611816 679.596069,303.105774 678.139099,303.138153 
	C674.731079,303.213837 670.248718,302.647614 669.815613,307.290649 
	C669.407593,311.664612 673.960632,311.126343 676.783203,311.975830 
	C679.159790,312.691101 681.648987,313.038208 684.014343,313.783295 
	C687.467285,314.870941 689.806885,317.083893 689.922852,320.940613 
	C690.040833,324.867279 688.016663,327.502899 684.606628,329.227631 
	C678.644836,332.243011 669.822937,331.511749 662.756470,327.143494 
	C663.370728,325.811157 664.013306,324.417450 664.411499,323.553772 
	C669.315857,324.389069 673.665466,325.664978 678.004089,325.628937 
	C679.987000,325.612457 681.948364,323.010651 683.919495,321.581360 
	C682.209656,320.310486 680.667419,318.595581 678.750977,317.872192 
	C675.829590,316.769440 672.598633,316.518860 669.591858,315.602203 
	C665.928101,314.485229 663.582520,312.008606 663.523010,307.987335 
	C663.465637,304.108978 665.252197,300.669861 668.909790,299.881378 
	C673.627747,298.864319 678.620850,299.123199 683.908691,298.921082 
z"/>
<path fill="#418BA5" opacity="1.000000" stroke="none" 
	d="
M242.992233,300.063232 
	C242.992233,297.263672 242.992233,294.953217 242.992233,292.293152 
	C244.985550,292.293152 246.692459,292.293152 248.734802,292.293152 
	C248.877914,294.395508 249.019226,296.471558 249.181244,298.851807 
	C252.050125,298.851807 254.662796,298.851807 257.708832,298.851807 
	C257.876404,300.503052 258.015503,301.873901 258.208801,303.778442 
	C255.077347,303.778442 252.328262,303.778442 249.041977,303.778442 
	C249.041977,310.028473 248.776093,315.813202 249.131287,321.559540 
	C249.387131,325.698273 252.089447,326.580566 258.520233,325.203461 
	C260.848480,327.803619 260.271881,329.422180 256.949982,330.496765 
	C249.364166,332.950745 243.151123,328.613312 243.018311,320.526337 
	C242.908981,313.869995 242.993576,307.210510 242.992233,300.063232 
z"/>
<path fill="#458DA7" opacity="1.000000" stroke="none" 
	d="
M609.882812,299.009674 
	C609.882812,294.551880 609.882812,290.592499 609.882812,286.312012 
	C611.923889,286.312012 613.623047,286.312012 615.842712,286.312012 
	C615.842712,297.072266 615.823730,307.656403 615.849487,318.240356 
	C615.865967,325.014069 616.447815,325.617218 623.249756,326.140381 
	C624.744080,329.384399 623.824890,330.926697 620.085083,331.023956 
	C613.880920,331.185272 610.052185,327.770813 609.932678,321.420258 
	C609.795288,314.118469 609.889343,306.812317 609.882812,299.009674 
z"/>
<path fill="#3F8AA5" opacity="1.000000" stroke="none" 
	d="
M234.975128,298.157959 
	C235.585144,298.652679 235.920532,299.082245 235.952484,299.533356 
	C236.033798,300.682159 235.979538,301.840576 235.979538,302.936005 
	C225.337799,306.316589 224.571869,307.391693 224.553955,318.810364 
	C224.547775,322.756104 224.552963,326.701874 224.552963,330.821594 
	C222.367126,330.821594 220.745117,330.821594 218.806061,330.821594 
	C218.806061,320.291412 218.806061,309.907349 218.806061,298.389221 
	C221.136185,299.322144 222.981293,300.060852 225.817245,301.196289 
	C227.624481,300.556946 231.093399,299.329773 234.975128,298.157959 
z"/>
<path fill="#FEFDFE" opacity="1.000000" stroke="none" 
	d="
M617.479919,178.295959 
	C612.131104,161.953995 611.852417,145.884689 617.336670,129.986343 
	C624.447937,109.371429 647.614319,102.017181 663.531189,115.220627 
	C672.099670,122.328407 675.581360,132.304657 676.820251,142.866180 
	C678.442566,156.696136 677.979431,170.426712 671.018921,183.142212 
	C665.405640,193.396530 656.701538,198.941040 645.153381,198.908737 
	C633.755798,198.876877 625.266418,193.213120 619.868835,183.100021 
	C619.087952,181.636841 618.379211,180.135147 617.479919,178.295959 
z"/>
<path fill="#F9FCFC" opacity="1.000000" stroke="none" 
	d="
M392.850098,317.368103 
	C390.048309,324.056335 385.625549,326.832275 380.128387,325.705475 
	C374.872559,324.628143 371.272278,320.152832 371.204224,314.612427 
	C371.136047,309.057770 374.611877,304.553406 379.916321,303.376312 
	C386.341553,301.950500 394.546906,306.790558 392.850098,317.368103 
z"/>
<path fill="#FCFDFE" opacity="1.000000" stroke="none" 
	d="
M195.403046,304.304138 
	C201.163284,308.680695 202.788086,314.288605 200.181580,319.768311 
	C198.018188,324.316437 193.023193,326.729431 188.129593,325.590393 
	C181.600616,324.070679 178.154205,317.681824 180.118073,310.738861 
	C181.835388,304.667572 187.711594,302.069672 195.403046,304.304138 
z"/>
<path fill="#FAFCFD" opacity="1.000000" stroke="none" 
	d="
M527.092346,317.928040 
	C523.996643,324.879883 518.677979,327.381592 512.659851,325.061432 
	C507.151123,322.937622 504.421478,316.648956 506.367401,310.564575 
	C508.035614,305.348541 513.632996,302.157501 519.005310,303.359711 
	C525.379822,304.786255 528.398560,310.033844 527.092346,317.928040 
z"/>
<path fill="#F9FCFC" opacity="1.000000" stroke="none" 
	d="
M308.341125,310.094299 
	C311.389648,321.039429 303.312866,327.111084 296.050903,325.675507 
	C290.920227,324.661255 287.513458,320.468018 287.225159,315.025208 
	C286.942413,309.687286 290.034424,305.197235 295.053040,303.658051 
	C300.365967,302.028625 304.866577,304.107941 308.341125,310.094299 
z"/>
<path fill="#F8FBFC" opacity="1.000000" stroke="none" 
	d="
M481.982208,303.644043 
	C484.472107,305.647766 486.604065,307.484894 488.736053,309.322021 
	C488.525635,309.842163 488.315247,310.362335 488.104828,310.882507 
	C481.596985,312.112793 475.089142,313.343109 468.509033,314.587067 
	C467.850861,306.191559 472.893616,302.192566 481.982208,303.644043 
z"/>
<path fill="#F7FAFB" opacity="1.000000" stroke="none" 
	d="
M646.650574,304.026489 
	C648.821777,305.971008 650.633850,307.762634 653.498047,310.594604 
	C645.471191,312.092133 638.966492,313.305695 632.408813,314.529114 
	C631.510620,305.841644 637.605469,301.459869 646.650574,304.026489 
z"/>
</svg>