<svg version="1.1" id="Layer_1" xmlns="http://www.w3.org/2000/svg" xmlns:xlink="http://www.w3.org/1999/xlink" x="0px" y="0px"
	 width="100%" viewBox="0 0 722 285" enable-background="new 0 0 722 285" xml:space="preserve">
<path fill="#FFFEFE" opacity="1.000000" stroke="none" 
	d="
M453.000000,286.000000 
	C302.000031,286.000000 151.500076,286.000000 1.000081,286.000000 
	C1.000054,191.000061 1.000054,96.000114 1.000027,1.000132 
	C241.666550,1.000088 482.333099,1.000088 722.999756,1.000044 
	C722.999817,95.999855 722.999817,190.999710 722.999878,285.999786 
	C633.166687,286.000000 543.333313,286.000000 453.000000,286.000000 
M716.197998,146.458099 
	C716.701050,136.080002 716.062073,125.807564 712.657898,115.910233 
	C704.218689,91.374168 687.653198,75.694183 661.774719,71.425537 
	C638.309326,67.554924 618.295166,74.939407 602.790039,93.047531 
	C582.342957,116.927261 580.855896,160.264023 599.302979,186.011032 
	C614.125366,206.699020 634.733521,215.831970 659.551514,212.532654 
	C693.024963,208.082642 715.242371,181.593658 716.197998,146.458099 
M19.074528,27.282259 
	C15.078143,27.721905 16.305229,30.833599 16.303255,33.063805 
	C16.252790,90.057602 16.263182,147.051453 16.265593,204.045288 
	C16.265640,205.211395 16.014481,206.482803 16.398228,207.512054 
	C16.737122,208.421005 17.790554,209.708694 18.545008,209.719925 
	C28.454454,209.867508 38.366837,209.818115 48.660915,209.818115 
	C48.660915,207.636780 48.660923,206.170563 48.660915,204.704330 
	C48.660793,183.373306 48.658688,162.042282 48.661709,140.711258 
	C48.662663,133.962189 48.668934,133.967026 55.420101,133.967621 
	C73.751450,133.969208 92.082832,133.981033 110.414108,133.944382 
	C112.450966,133.940308 115.104401,134.604767 115.117416,131.152115 
	C115.147461,123.179802 115.126953,115.207306 115.126953,106.901672 
	C112.546867,106.754555 110.418816,106.531113 108.290443,106.527924 
	C90.292427,106.500946 72.292885,106.390671 54.297394,106.605835 
	C50.023621,106.656937 48.460033,105.618874 48.558128,101.074600 
	C48.845783,87.748917 48.894009,74.406853 48.541534,61.084282 
	C48.406929,55.996655 49.853619,54.679192 54.948307,54.750393 
	C76.941635,55.057793 98.942986,54.757816 120.938278,54.984035 
	C125.447609,55.030407 126.736328,53.631268 126.450760,49.288898 
	C126.090645,43.813171 126.061577,38.273861 126.458885,32.803314 
	C126.778969,28.396002 125.432434,27.165991 120.967026,27.190847 
	C87.305054,27.378216 53.641556,27.290068 19.074528,27.282259 
M226.296753,183.885590 
	C239.041428,146.844604 251.786102,109.803619 264.772186,72.061050 
	C255.753998,72.061050 247.613602,72.379173 239.514572,71.937820 
	C234.898407,71.686256 233.176910,73.539230 232.005707,77.629883 
	C222.761215,109.918442 213.358109,142.161621 203.962265,174.406677 
	C203.646774,175.489441 202.890381,176.443710 201.897110,178.272278 
	C201.230438,176.434677 200.943481,175.694870 200.692001,174.943176 
	C190.458603,144.353241 180.218094,113.765663 170.003143,83.169548 
	C166.297729,72.070969 166.325989,72.061539 154.462143,72.061539 
	C147.733368,72.061539 141.004593,72.061539 133.766602,72.061539 
	C134.463730,74.212471 134.796371,75.467827 135.270126,76.667450 
	C151.518402,117.811028 167.621002,159.013626 184.205017,200.021545 
	C186.801331,206.441513 186.751068,211.975342 184.454269,218.155945 
	C177.975418,235.590424 169.430542,241.141708 150.754318,239.989960 
	C149.596725,239.918579 147.607208,241.538895 147.223190,242.756439 
	C145.524796,248.141479 144.512390,253.745087 142.769409,259.112976 
	C141.699158,262.409027 142.802704,263.626129 145.744080,264.474335 
	C158.107849,268.039795 170.127182,267.067413 181.750610,261.710571 
	C193.709030,256.199371 201.763290,246.499557 206.779877,234.882858 
	C213.886215,218.427002 219.700333,201.413132 226.296753,183.885590 
M493.128357,81.341599 
	C492.467560,80.187561 491.653046,79.093727 491.173309,77.868774 
	C489.370178,73.264503 486.353851,71.549942 481.201843,71.919441 
	C473.579956,72.466087 465.889526,72.039864 458.228516,72.074371 
	C456.861359,72.080528 455.495239,72.312248 453.625793,72.486755 
	C454.673035,74.325455 455.288544,75.486504 455.976807,76.602722 
	C467.500488,95.291458 478.904785,114.056114 490.666565,132.593903 
	C493.179260,136.554184 493.237793,139.425507 490.790222,143.379211 
	C478.271454,163.601562 466.022919,183.991302 453.698578,204.333847 
	C452.799133,205.818497 452.047577,207.392761 450.728119,209.857788 
	C460.962677,209.857788 470.214111,209.694275 479.454376,209.943619 
	C482.836700,210.034882 484.557404,208.746674 486.000488,205.886383 
	C493.264648,191.488083 500.671112,177.161484 508.058075,162.825394 
	C508.834229,161.319092 509.810059,159.915680 510.996918,157.965607 
	C518.776611,171.045090 526.976379,182.889130 533.114075,195.719574 
	C538.761108,207.524292 546.588440,212.033218 559.264038,209.994125 
	C564.530884,209.146851 570.047668,209.853455 576.348267,209.853455 
	C575.012390,207.471359 574.296570,206.031891 573.436035,204.684860 
	C561.077148,185.340027 548.798706,165.942352 536.239441,146.728333 
	C533.779053,142.964310 533.868408,140.161240 536.108948,136.380676 
	C547.890930,116.500427 559.419128,96.469681 571.012146,76.477737 
	C571.704468,75.283859 572.196106,73.973633 573.081848,72.071785 
	C562.433655,72.071785 552.635498,71.950264 542.847534,72.212753 
	C541.497192,72.248970 539.663635,73.914703 538.960388,75.289726 
	C533.814209,85.351562 528.859558,95.512421 523.928467,105.682755 
	C521.455627,110.782921 519.158508,115.968269 516.358521,122.031837 
	C508.289642,107.900009 500.890076,94.940384 493.128357,81.341599 
M338.021637,76.482208 
	C331.389862,83.014923 324.758087,89.547630 317.798187,96.403534 
	C317.048126,88.690056 316.247620,80.457733 315.464020,72.399292 
	C306.337585,72.399292 297.929565,72.399292 289.659668,72.399292 
	C289.406403,73.047623 289.185638,73.349060 289.185455,73.650642 
	C289.156830,117.949532 289.164673,162.248474 289.081451,206.547226 
	C289.076294,209.283936 290.117279,209.938644 292.621094,209.901764 
	C300.447052,209.786453 308.287476,209.601227 316.098633,209.959274 
	C320.248169,210.149460 321.077698,208.726852 321.050018,204.866089 
	C320.880310,181.217850 320.805481,157.565781 321.104279,133.920105 
	C321.160797,129.448227 322.155334,124.531494 324.229004,120.621986 
	C332.559204,104.916870 343.878082,95.986946 363.528534,99.846527 
	C364.462036,100.029877 365.462952,99.870079 366.937225,99.870079 
	C368.986816,90.826424 371.025146,81.832359 373.048431,72.904808 
	C361.788818,68.594421 349.287872,69.830719 338.021637,76.482208 
M425.409668,186.500076 
	C425.409882,150.358582 425.410065,114.217087 425.410400,78.075592 
	C425.410400,77.076286 425.756348,75.886040 425.332764,75.121994 
	C424.681915,73.947952 423.522644,72.216118 422.544739,72.193321 
	C413.104553,71.973190 403.657196,72.061310 394.069031,72.061310 
	C394.069031,118.212341 394.069031,163.864349 394.069031,209.855423 
	C403.765686,209.855423 413.066467,209.979111 422.354065,209.685333 
	C423.411987,209.651871 425.206909,207.318069 425.275269,205.980118 
	C425.589325,199.833862 425.411316,193.662460 425.409668,186.500076 
M390.740814,25.508074 
	C388.271637,40.109398 396.897766,49.139519 412.326965,48.105179 
	C419.528595,47.622395 425.831238,42.674049 427.799408,35.957436 
	C430.088013,28.147230 427.471588,19.567505 421.309509,15.432008 
	C410.502228,8.179036 393.892944,12.415256 390.740814,25.508074 
z"/>
<path fill="#A4025C" opacity="1.000000" stroke="none" 
	d="
M716.179932,146.948578 
	C715.242371,181.593658 693.024963,208.082642 659.551514,212.532654 
	C634.733521,215.831970 614.125366,206.699020 599.302979,186.011032 
	C580.855896,160.264023 582.342957,116.927261 602.790039,93.047531 
	C618.295166,74.939407 638.309326,67.554924 661.774719,71.425537 
	C687.653198,75.694183 704.218689,91.374168 712.657898,115.910233 
	C716.062073,125.807564 716.701050,136.080002 716.179932,146.948578 
M665.802612,100.515594 
	C647.921387,91.719437 629.792053,99.083069 623.295654,118.108620 
	C617.919006,133.854843 617.815857,149.868607 623.321899,165.556854 
	C627.676819,177.964981 636.264954,186.262558 650.025269,186.854507 
	C662.955444,187.410736 672.286133,181.026520 677.891541,169.500854 
	C684.163208,156.605301 684.592896,142.904526 682.446167,129.044693 
	C680.689575,117.703537 676.519653,107.592468 665.802612,100.515594 
z"/>
<path fill="#A5055D" opacity="1.000000" stroke="none" 
	d="
M19.526531,27.285130 
	C53.641556,27.290068 87.305054,27.378216 120.967026,27.190847 
	C125.432434,27.165991 126.778969,28.396002 126.458885,32.803314 
	C126.061577,38.273861 126.090645,43.813171 126.450760,49.288898 
	C126.736328,53.631268 125.447609,55.030407 120.938278,54.984035 
	C98.942986,54.757816 76.941635,55.057793 54.948307,54.750393 
	C49.853619,54.679192 48.406929,55.996655 48.541534,61.084282 
	C48.894009,74.406853 48.845783,87.748917 48.558128,101.074600 
	C48.460033,105.618874 50.023621,106.656937 54.297394,106.605835 
	C72.292885,106.390671 90.292427,106.500946 108.290443,106.527924 
	C110.418816,106.531113 112.546867,106.754555 115.126953,106.901672 
	C115.126953,115.207306 115.147461,123.179802 115.117416,131.152115 
	C115.104401,134.604767 112.450966,133.940308 110.414108,133.944382 
	C92.082832,133.981033 73.751450,133.969208 55.420101,133.967621 
	C48.668934,133.967026 48.662663,133.962189 48.661709,140.711258 
	C48.658688,162.042282 48.660793,183.373306 48.660915,204.704330 
	C48.660923,206.170563 48.660915,207.636780 48.660915,209.818115 
	C38.366837,209.818115 28.454454,209.867508 18.545008,209.719925 
	C17.790554,209.708694 16.737122,208.421005 16.398228,207.512054 
	C16.014481,206.482803 16.265640,205.211395 16.265593,204.045288 
	C16.263182,147.051453 16.252790,90.057602 16.303255,33.063805 
	C16.305229,30.833599 15.078143,27.721905 19.526531,27.285130 
z"/>
<path fill="#A4035C" opacity="1.000000" stroke="none" 
	d="
M226.181747,184.261658 
	C219.700333,201.413132 213.886215,218.427002 206.779877,234.882858 
	C201.763290,246.499557 193.709030,256.199371 181.750610,261.710571 
	C170.127182,267.067413 158.107849,268.039795 145.744080,264.474335 
	C142.802704,263.626129 141.699158,262.409027 142.769409,259.112976 
	C144.512390,253.745087 145.524796,248.141479 147.223190,242.756439 
	C147.607208,241.538895 149.596725,239.918579 150.754318,239.989960 
	C169.430542,241.141708 177.975418,235.590424 184.454269,218.155945 
	C186.751068,211.975342 186.801331,206.441513 184.205017,200.021545 
	C167.621002,159.013626 151.518402,117.811028 135.270126,76.667450 
	C134.796371,75.467827 134.463730,74.212471 133.766602,72.061539 
	C141.004593,72.061539 147.733368,72.061539 154.462143,72.061539 
	C166.325989,72.061539 166.297729,72.070969 170.003143,83.169548 
	C180.218094,113.765663 190.458603,144.353241 200.692001,174.943176 
	C200.943481,175.694870 201.230438,176.434677 201.897110,178.272278 
	C202.890381,176.443710 203.646774,175.489441 203.962265,174.406677 
	C213.358109,142.161621 222.761215,109.918442 232.005707,77.629883 
	C233.176910,73.539230 234.898407,71.686256 239.514572,71.937820 
	C247.613602,72.379173 255.753998,72.061050 264.772186,72.061050 
	C251.786102,109.803619 239.041428,146.844604 226.181747,184.261658 
z"/>
<path fill="#A4035C" opacity="1.000000" stroke="none" 
	d="
M493.309418,81.661179 
	C500.890076,94.940384 508.289642,107.900009 516.358521,122.031837 
	C519.158508,115.968269 521.455627,110.782921 523.928467,105.682755 
	C528.859558,95.512421 533.814209,85.351562 538.960388,75.289726 
	C539.663635,73.914703 541.497192,72.248970 542.847534,72.212753 
	C552.635498,71.950264 562.433655,72.071785 573.081848,72.071785 
	C572.196106,73.973633 571.704468,75.283859 571.012146,76.477737 
	C559.419128,96.469681 547.890930,116.500427 536.108948,136.380676 
	C533.868408,140.161240 533.779053,142.964310 536.239441,146.728333 
	C548.798706,165.942352 561.077148,185.340027 573.436035,204.684860 
	C574.296570,206.031891 575.012390,207.471359 576.348267,209.853455 
	C570.047668,209.853455 564.530884,209.146851 559.264038,209.994125 
	C546.588440,212.033218 538.761108,207.524292 533.114075,195.719574 
	C526.976379,182.889130 518.776611,171.045090 510.996918,157.965607 
	C509.810059,159.915680 508.834229,161.319092 508.058075,162.825394 
	C500.671112,177.161484 493.264648,191.488083 486.000488,205.886383 
	C484.557404,208.746674 482.836700,210.034882 479.454376,209.943619 
	C470.214111,209.694275 460.962677,209.857788 450.728119,209.857788 
	C452.047577,207.392761 452.799133,205.818497 453.698578,204.333847 
	C466.022919,183.991302 478.271454,163.601562 490.790222,143.379211 
	C493.237793,139.425507 493.179260,136.554184 490.666565,132.593903 
	C478.904785,114.056114 467.500488,95.291458 455.976807,76.602722 
	C455.288544,75.486504 454.673035,74.325455 453.625793,72.486755 
	C455.495239,72.312248 456.861359,72.080528 458.228516,72.074371 
	C465.889526,72.039864 473.579956,72.466087 481.201843,71.919441 
	C486.353851,71.549942 489.370178,73.264503 491.173309,77.868774 
	C491.653046,79.093727 492.467560,80.187561 493.309418,81.661179 
z"/>
<path fill="#A4045C" opacity="1.000000" stroke="none" 
	d="
M338.330505,76.286171 
	C349.287872,69.830719 361.788818,68.594421 373.048431,72.904808 
	C371.025146,81.832359 368.986816,90.826424 366.937225,99.870079 
	C365.462952,99.870079 364.462036,100.029877 363.528534,99.846527 
	C343.878082,95.986946 332.559204,104.916870 324.229004,120.621986 
	C322.155334,124.531494 321.160797,129.448227 321.104279,133.920105 
	C320.805481,157.565781 320.880310,181.217850 321.050018,204.866089 
	C321.077698,208.726852 320.248169,210.149460 316.098633,209.959274 
	C308.287476,209.601227 300.447052,209.786453 292.621094,209.901764 
	C290.117279,209.938644 289.076294,209.283936 289.081451,206.547226 
	C289.164673,162.248474 289.156830,117.949532 289.185455,73.650642 
	C289.185638,73.349060 289.406403,73.047623 289.659668,72.399292 
	C297.929565,72.399292 306.337585,72.399292 315.464020,72.399292 
	C316.247620,80.457733 317.048126,88.690056 317.798187,96.403534 
	C324.758087,89.547630 331.389862,83.014923 338.330505,76.286171 
z"/>
<path fill="#A3015B" opacity="1.000000" stroke="none" 
	d="
M425.409790,187.000092 
	C425.411316,193.662460 425.589325,199.833862 425.275269,205.980118 
	C425.206909,207.318069 423.411987,209.651871 422.354065,209.685333 
	C413.066467,209.979111 403.765686,209.855423 394.069031,209.855423 
	C394.069031,163.864349 394.069031,118.212341 394.069031,72.061310 
	C403.657196,72.061310 413.104553,71.973190 422.544739,72.193321 
	C423.522644,72.216118 424.681915,73.947952 425.332764,75.121994 
	C425.756348,75.886040 425.410400,77.076286 425.410400,78.075592 
	C425.410065,114.217087 425.409882,150.358582 425.409790,187.000092 
z"/>
<path fill="#A4045C" opacity="1.000000" stroke="none" 
	d="
M390.831360,25.117252 
	C393.892944,12.415256 410.502228,8.179036 421.309509,15.432008 
	C427.471588,19.567505 430.088013,28.147230 427.799408,35.957436 
	C425.831238,42.674049 419.528595,47.622395 412.326965,48.105179 
	C396.897766,49.139519 388.271637,40.109398 390.831360,25.117252 
z"/>
<path fill="#FEFDFE" opacity="1.000000" stroke="none" 
	d="
M666.098145,100.739716 
	C676.519653,107.592468 680.689575,117.703537 682.446167,129.044693 
	C684.592896,142.904526 684.163208,156.605301 677.891541,169.500854 
	C672.286133,181.026520 662.955444,187.410736 650.025269,186.854507 
	C636.264954,186.262558 627.676819,177.964981 623.321899,165.556854 
	C617.815857,149.868607 617.919006,133.854843 623.295654,118.108620 
	C629.792053,99.083069 647.921387,91.719437 666.098145,100.739716 
z"/>
</svg>