<?xml version="1.0" encoding="UTF-8"?>
<svg width="100" height="100" viewBox="0 0 100 100" xmlns="http://www.w3.org/2000/svg">
  <defs>
    <pattern id="circuit" x="0" y="0" width="50" height="50" patternUnits="userSpaceOnUse">
      <path d="M0 0h50v50H0z" fill="none"/>
      <!-- Main circuit paths -->
      <path d="M25 0v15m0 20v15M0 25h15m20 0h15" stroke="currentColor" stroke-width="0.5"/>
      <path d="M10 0v10m0 30v10M40 0v10m0 30v10" stroke="currentColor" stroke-width="0.3"/>
      <path d="M0 10h10m30 0h10M0 40h10m30 0h10" stroke="currentColor" stroke-width="0.3"/>
      <!-- Connection points -->
      <circle cx="25" cy="25" r="3" fill="currentColor"/>
      <circle cx="10" cy="10" r="2" fill="currentColor"/>
      <circle cx="40" cy="10" r="2" fill="currentColor"/>
      <circle cx="10" cy="40" r="2" fill="currentColor"/>
      <circle cx="40" cy="40" r="2" fill="currentColor"/>
      <!-- Decorative elements -->
      <rect x="23" y="23" width="4" height="4" fill="none" stroke="currentColor" stroke-width="0.5"/>
      <path d="M8 8h4v4H8zM38 8h4v4h-4zM8 38h4v4H8zM38 38h4v4h-4z" fill="none" stroke="currentColor" stroke-width="0.3"/>
    </pattern>
  </defs>
  <rect width="100%" height="100%" fill="url(#circuit)"/>
</svg>
