<?xml version="1.0" encoding="UTF-8"?>
<svg width="100" height="100" viewBox="0 0 100 100" xmlns="http://www.w3.org/2000/svg">
  <defs>
    <pattern id="techGrid" x="0" y="0" width="50" height="50" patternUnits="userSpaceOnUse">
      <!-- Grid Lines -->
      <path d="M0 0h50v50H0z" fill="none"/>
      <path d="M0 25h50M25 0v50" stroke="currentColor" stroke-width="0.2" opacity="0.3"/>
      
      <!-- Connection Points -->
      <g fill="currentColor">
        <circle cx="25" cy="25" r="1.5"/>
        <circle cx="0" cy="25" r="1.5"/>
        <circle cx="50" cy="25" r="1.5"/>
        <circle cx="25" cy="0" r="1.5"/>
        <circle cx="25" cy="50" r="1.5"/>
      </g>
      
      <!-- Circuit Paths -->
      <g stroke="currentColor" stroke-width="0.4" fill="none">
        <path d="M0 12.5h12.5v12.5M37.5 0v12.5h12.5M0 37.5h12.5v12.5M37.5 37.5v12.5h12.5"/>
      </g>
      
      <!-- Tech Symbols -->
      <g stroke="currentColor" stroke-width="0.3" fill="none">
        <rect x="20" y="20" width="10" height="10" rx="2"/>
        <path d="M22 25h6M25 22v6"/>
      </g>
      
      <!-- Data Flow Lines -->
      <g stroke="currentColor" stroke-width="0.2" opacity="0.5">
        <path d="M12.5 0v12.5h25v25h12.5"/>
        <path d="M0 37.5h12.5v-25h25v37.5"/>
      </g>
    </pattern>
  </defs>
  <rect width="100%" height="100%" fill="url(#techGrid)"/>
</svg>
